<svg xmlns="http://www.w3.org/2000/svg" width="2700" height="880" viewBox="0 0 2700 880" role="img" aria-labelledby="title desc">
<title id="title">little-life</title>
<desc id="desc">Checked Conduit Plot with exact typed port connections.</desc>
<style>svg{--diagram-background:#05070b;--diagram-surface:#090d16;--diagram-reading-paper:#0c121c;--diagram-structure:#0dd8f6;--diagram-structure-secondary:#0a1f87;--diagram-text:#93d2f7;--diagram-text-secondary:#578ec9;--diagram-emphasis:#e9a325;--diagram-failure:#ff7272;--diagram-success:#63d69b}@media(prefers-color-scheme:light){svg{--diagram-background:#eef5f8;--diagram-surface:#fff;--diagram-reading-paper:#fff;--diagram-structure:#00758c;--diagram-structure-secondary:#9ab8d1;--diagram-text:#17364d;--diagram-text-secondary:#496b82;--diagram-emphasis:#9a5b00;--diagram-failure:#a32d37;--diagram-success:#08784e}}text{font-family:ui-monospace,SFMono-Regular,Consolas,monospace;fill:var(--conduit-text-primary,var(--diagram-text))}.canvas{fill:var(--conduit-background,var(--diagram-background))}.gear{fill:var(--conduit-reading-paper,var(--diagram-reading-paper));stroke:var(--conduit-text-secondary,var(--diagram-text-secondary));stroke-width:2}.header{fill:var(--conduit-surface,var(--diagram-surface))}.gear-mark{fill:var(--conduit-emphasis,var(--diagram-emphasis))}.gear-hole{fill:var(--conduit-surface,var(--diagram-surface))}.boundary{fill:var(--conduit-surface,var(--diagram-surface));stroke:var(--conduit-structure-primary,var(--diagram-structure));stroke-width:2}.port{fill:var(--conduit-background,var(--diagram-background));stroke-width:3}.input-port{stroke:var(--conduit-structure-primary,var(--diagram-structure))}.output-port{stroke:var(--conduit-emphasis,var(--diagram-emphasis))}.port-name{fill:var(--conduit-text-primary,var(--diagram-text));font-size:13px;font-weight:800}.cord-shadow{fill:none;stroke:var(--conduit-background,var(--diagram-background));stroke-width:9;stroke-linejoin:round}.cord{fill:none;stroke:var(--conduit-structure-primary,var(--diagram-structure));stroke-width:3;stroke-linejoin:round}.close{stroke:var(--conduit-text-secondary,var(--diagram-text-secondary));stroke-dasharray:8 5}.quiescence{stroke:#9d7bd1;stroke-dasharray:3 5}.abnormal{stroke:var(--conduit-failure,var(--diagram-failure));stroke-dasharray:5 5}.split-junction{fill:var(--conduit-emphasis,var(--diagram-emphasis));stroke:var(--conduit-background,var(--diagram-background));stroke-width:3}.join-junction{fill:var(--conduit-structure-primary,var(--diagram-structure));stroke:var(--conduit-background,var(--diagram-background));stroke-width:3}.kind{fill:var(--conduit-success,var(--diagram-success));font-size:13px}.boundary-port{fill:var(--conduit-text-primary,var(--diagram-text));font-size:13px;font-weight:750}.cord-tag{fill:var(--conduit-surface,var(--diagram-surface));stroke:var(--conduit-emphasis,var(--diagram-emphasis));stroke-width:1}.cord-label{fill:var(--conduit-emphasis,var(--diagram-emphasis));font-size:10px;font-weight:600}.label{font-size:16px}.title{font-size:24px;font-weight:750}.legend{font-size:13px;fill:var(--conduit-text-secondary,var(--diagram-text-secondary))}</style><defs><marker id="arrow" markerWidth="10" markerHeight="10" refX="9" refY="5" orient="auto"><path d="M0,0 L10,5 L0,10 z" fill="var(--conduit-structure-primary,var(--diagram-structure))"/></marker><marker id="arrow-abnormal" markerWidth="10" markerHeight="10" refX="9" refY="5" orient="auto"><path d="M0,0 L10,5 L0,10 z" fill="var(--conduit-failure,var(--diagram-failure))"/></marker><symbol id="gear-mark" viewBox="0 0 24 24"><path class="gear-mark" d="M19.4 13a7.7 7.7 0 0 0 0-2l2.1-1.6a.6.6 0 0 0 .1-.7l-2-3.5a.6.6 0 0 0-.7-.2l-2.5 1a8 8 0 0 0-1.7-1l-.4-2.6A.6.6 0 0 0 13.8 2h-4a.6.6 0 0 0-.6.4L8.9 5a8 8 0 0 0-1.7 1L4.7 5a.6.6 0 0 0-.7.2L2 8.7a.6.6 0 0 0 .1.7L4.2 11a7.7 7.7 0 0 0 0 2l-2.1 1.6a.6.6 0 0 0-.1.7l2 3.5a.6.6 0 0 0 .7.2l2.5-1a8 8 0 0 0 1.7 1l.4 2.6a.6.6 0 0 0 .6.4h4a.6.6 0 0 0 .6-.4l.4-2.6a8 8 0 0 0 1.7-1l2.5 1a.6.6 0 0 0 .7-.2l2-3.5a.6.6 0 0 0-.1-.7z"/><circle class="gear-hole" cx="12" cy="12" r="3.2"/></symbol></defs><rect class="canvas" width="2700" height="880"/>
<text class="title" x="50" y="42">Plot little-life</text>
<text class="legend" x="50" y="68">ordinary flow —  close - -  quiescence · ·  abnormal - -  ● junction; crossing without dot = separate cords</text>
<g><title>little-life/clock.tick → little-life/organism.tick · value/tick@1 · payload</title><path class="cord-shadow" d="M870,320 H870 H900 V482 H1210 H1210"/><path class="cord" marker-end="url(#arrow)" d="M870,320 H870 H900 V482 H1210 H1210"/>
<rect class="cord-tag" x="1011" y="460" width="88" height="18" rx="6"/><text class="cord-label" text-anchor="middle" x="1055" y="472">value/tick@1</text>
</g>
<g><title>little-life/organism.field → little-life/evolving.field · alife/scalar-field2@1 · payload</title><path class="cord-shadow" d="M1490,440 H1490 H1555 V460 H1830 H1830"/><path class="cord" marker-end="url(#arrow)" d="M1490,440 H1490 H1555 V460 H1830 H1830"/>
<rect class="cord-tag" x="1621" y="438" width="142" height="18" rx="6"/><text class="cord-label" text-anchor="middle" x="1692" y="450">alife/scalar-field2@1</text>
</g>
<g><title>little-life/seed.field → little-life/organism.initial · alife/scalar-field2@1 · payload</title><path class="cord-shadow" d="M870,600 H870 H970 V440 H1210 H1210"/><path class="cord" marker-end="url(#arrow)" d="M870,600 H870 H970 V440 H1210 H1210"/>
<rect class="cord-tag" x="1019" y="418" width="142" height="18" rx="6"/><text class="cord-label" text-anchor="middle" x="1090" y="430">alife/scalar-field2@1</text>
</g>
<g><rect class="gear" x="590" y="240" width="280" height="120" rx="10"/><path class="header" d="M590,250 q0,-10 10,-10 h260 q10,0 10,10 v42 h-280 z"/>
<title>little-life/clock — kind time/tick</title>
<use href="#gear-mark" x="602" y="251" width="28" height="28"/><text class="label" x="640" y="262">clock</text><text class="kind" x="640" y="283">little-life/clock</text>
<g><title>tick: value/tick@1</title><circle class="port output-port" cx="870" cy="320" r="5"/></g>
<text class="port-name" text-anchor="end" x="859" y="324">tick</text>
</g>
<g><rect class="gear" x="590" y="520" width="280" height="120" rx="10"/><path class="header" d="M590,530 q0,-10 10,-10 h260 q10,0 10,10 v42 h-280 z"/>
<title>little-life/seed — kind alife/orbium-seed</title>
<use href="#gear-mark" x="602" y="531" width="28" height="28"/><text class="label" x="640" y="542">seed</text><text class="kind" x="640" y="563">little-life/seed</text>
<g><title>field: alife/scalar-field2@1</title><circle class="port output-port" cx="870" cy="600" r="5"/></g>
<text class="port-name" text-anchor="end" x="859" y="604">field</text>
</g>
<g><rect class="gear" x="1210" y="360" width="280" height="160" rx="10"/><path class="header" d="M1210,370 q0,-10 10,-10 h260 q10,0 10,10 v42 h-280 z"/>
<title>little-life/organism — kind alife/lenia-step</title>
<use href="#gear-mark" x="1222" y="371" width="28" height="28"/><text class="label" x="1260" y="382">organism</text><text class="kind" x="1260" y="403">little-life/organism</text>
<g><title>initial: alife/scalar-field2@1</title><circle class="port input-port" cx="1210" cy="440" r="5"/></g>
<text class="port-name" text-anchor="start" x="1221" y="444">initial</text>
<g><title>tick: value/tick@1</title><circle class="port input-port" cx="1210" cy="482" r="5"/></g>
<text class="port-name" text-anchor="start" x="1221" y="486">tick</text>
<g><title>field: alife/scalar-field2@1</title><circle class="port output-port" cx="1490" cy="440" r="5"/></g>
<text class="port-name" text-anchor="end" x="1479" y="444">field</text>
</g>
<g><rect class="gear" x="1830" y="380" width="280" height="120" rx="10"/><path class="header" d="M1830,390 q0,-10 10,-10 h260 q10,0 10,10 v42 h-280 z"/>
<title>little-life/evolving — kind presentation/scalar-field</title>
<use href="#gear-mark" x="1842" y="391" width="28" height="28"/><text class="label" x="1880" y="402">evolving</text><text class="kind" x="1880" y="423">little-life/evolving</text>
<g><title>field: alife/scalar-field2@1</title><circle class="port input-port" cx="1830" cy="460" r="5"/></g>
<text class="port-name" text-anchor="start" x="1841" y="464">field</text>
</g>
<rect class="boundary" x="50" y="388" width="200" height="104" rx="10"/><text class="label" x="66" y="416">Plot inputs</text>
<rect class="boundary" x="2450" y="388" width="200" height="104" rx="10"/><text class="label" x="2466" y="416">Plot outputs</text>
</svg>
